<svg data-name="Layer 1" xmlns="http://www.w3.org/2000/svg" viewBox="0 0 430.19 351.24"><path d="M283.61 50.55a145.79 145.79 0 0 0-71.4 18.58 87.11 87.11 0 0 1-34.65 88.76l9.92 20.73-35.87-2.75-12.9-.84a148.21 148.21 0 0 0-1.62 22.09 146.34 146.34 0 0 0 61.48 119.3l-16.7 34.82 60.34-4.62 47.17-3.08c2.78-.11 5.54-.28 8.28-.54h.65a146.57 146.57 0 0 0-14.7-292.4" fill="#f2ae9c"/><path d="M39.98 87.04a87 87 0 0 1 172.23-17.91 146.66 146.66 0 0 0-73.5 105.85l-15.11-1c-1.65-.07-3.3-.17-4.92-.33h-.39a87 87 0 0 1-78.32-86.6" fill="#ef4042"/><path d="M212.21 69.13a87.11 87.11 0 0 1-34.65 88.76l9.92 20.73-35.87-2.75-12.9-.84a146.64 146.64 0 0 1 73.5-105.85" fill="#e96f5e"/><path d="M0 237.62a62.06 62.06 0 1 1 68.27 61.75H68c-1.16.1-2.33.18-3.51.22l-20 1.3-25.57 2 7.07-14.74a61.94 61.94 0 0 1-26-50.51" fill="#a51729"/></svg>